<?xml version="1.0" standalone="no"?>
<!DOCTYPE svg PUBLIC "-//W3C//DTD SVG 20010904//EN"
 "http://www.w3.org/TR/2001/REC-SVG-20010904/DTD/svg10.dtd">
<svg version="1.0" xmlns="http://www.w3.org/2000/svg"
 width="1000.000000pt" height="1000.000000pt" viewBox="0 0 1000.000000 1000.000000"
 preserveAspectRatio="xMidYMid meet">

<g transform="translate(0.000000,1000.000000) scale(0.100000,-0.100000)"
fill="#000000" stroke="none">
<path d="M0 5000 l0 -5000 5000 0 5000 0 0 5000 0 5000 -5000 0 -5000 0 0
-5000z m4692 2883 l3 -1518 1202 -3 1203 -2 0 305 0 305 -900 0 -900 0 0 1215
0 1215 2050 0 2050 0 0 -2880 0 -2880 -1060 0 -1060 0 0 -305 0 -305 1060 0
1060 0 0 -1215 0 -1215 -2055 0 -2055 0 0 1525 0 1525 -1200 0 -1200 0 0 -305
0 -305 895 0 895 0 0 -1220 0 -1220 -2040 0 -2040 0 0 2885 0 2885 1050 0
1050 0 0 305 0 305 -1050 0 -1050 0 0 1210 0 1210 2045 0 2045 0 2 -1517z"/>
</g>
</svg>
